HIERARCHY
ROOT SpineBase
{
  OFFSET 0.000000 0.000000 0.000000
  CHANNELS 6 Xposition Yposition Zposition Zrotation Xrotation Yrotation
  JOINT SpineMid
  {
    OFFSET 0.000000 32.413389 0.000000
    CHANNELS 3 Zrotation Xrotation Yrotation
    JOINT SpineShoulder
    {
      OFFSET 0.224678 24.014874 -0.585276
      CHANNELS 3 Zrotation Xrotation Yrotation
      JOINT Neck
      {
        OFFSET 0.172469 7.923294 -0.472825
        CHANNELS 3 Zrotation Xrotation Yrotation
        JOINT Head
        {
          OFFSET 7.178906 10.472267 4.940364
          CHANNELS 3 Zrotation Xrotation Yrotation
          End Site
          {
            OFFSET 0 0 0
          }
        }
      }
      JOINT ShoulderLeft
      {
        OFFSET -5.824658 -2.783804 -11.673762
        CHANNELS 3 Zrotation Xrotation Yrotation
        JOINT ElbowLeft
        {
          OFFSET -4.379216 -22.333758 -9.460031
          CHANNELS 3 Zrotation Xrotation Yrotation
          JOINT WristLeft
          {
            OFFSET -0.820093 -26.527760 -3.692670
            CHANNELS 3 Zrotation Xrotation Yrotation
            JOINT HandLeft
            {
              OFFSET 0.148775 -7.839846 1.538564
              CHANNELS 3 Zrotation Xrotation Yrotation
              JOINT HandTipLeft
              {
                OFFSET -1.003393 -6.673255 0.692496
                CHANNELS 3 Zrotation Xrotation Yrotation
                End Site
                {
                  OFFSET 0 0 0
                }
              }
              JOINT ThumbLeft
              {
                OFFSET 5.173552 1.864375 0.999832
                CHANNELS 3 Zrotation Xrotation Yrotation
                End Site
                {
                  OFFSET 0 0 0
                }
              }
            }
          }
        }
      }
      JOINT ShoulderRight
      {
        OFFSET 3.771830 -6.612597 18.657704
        CHANNELS 3 Zrotation Xrotation Yrotation
        JOINT ElbowRight
        {
          OFFSET 1.600245 -28.285296 2.194873
          CHANNELS 3 Zrotation Xrotation Yrotation
          JOINT WristRight
          {
            OFFSET 5.360473 -20.885534 -16.918110
            CHANNELS 3 Zrotation Xrotation Yrotation
            JOINT HandRight
            {
              OFFSET -2.608847 -2.973223 -3.292336
              CHANNELS 3 Zrotation Xrotation Yrotation
              JOINT HandTipRight
              {
                OFFSET -1.095217 -5.100347 -2.611476
                CHANNELS 3 Zrotation Xrotation Yrotation
                End Site
                {
                  OFFSET 0 0 0
                }
              }
              JOINT ThumbRight
              {
                OFFSET -0.886595 -2.529030 0.658229
                CHANNELS 3 Zrotation Xrotation Yrotation
                End Site
                {
                  OFFSET 0 0 0
                }
              }
            }
          }
        }
      }
    }
  }
  JOINT HipLeft
  {
    OFFSET -1.017300 2.498346 -8.480227
    CHANNELS 3 Zrotation Xrotation Yrotation
    JOINT KneeLeft
    {
      OFFSET -9.584602 -34.592453 -7.449479
      CHANNELS 3 Zrotation Xrotation Yrotation
      JOINT AnkleLeft
      {
        OFFSET -9.534481 -30.986191 1.580698
        CHANNELS 3 Zrotation Xrotation Yrotation
        JOINT FootLeft
        {
          OFFSET 10.238782 -4.317838 -6.135978
          CHANNELS 3 Zrotation Xrotation Yrotation
          End Site
          {
            OFFSET 0 0 0
          }
        }
      }
    }
  }
  JOINT HipRight
  {
    OFFSET 2.990387 -0.975652 1.767648
    CHANNELS 3 Zrotation Xrotation Yrotation
    JOINT KneeRight
    {
      OFFSET -5.030794 -35.850872 1.328608
      CHANNELS 3 Zrotation Xrotation Yrotation
      JOINT AnkleRight
      {
        OFFSET -9.331226 -27.589781 -1.202279
        CHANNELS 3 Zrotation Xrotation Yrotation
        JOINT FootRight
        {
          OFFSET 10.112425 -4.353287 -6.194733
          CHANNELS 3 Zrotation Xrotation Yrotation
          End Site
          {
            OFFSET 0 0 0
          }
        }
      }
    }
  }
}
MOTION
Frames: 13
Frame Time: 0.033333
-84.548519 71.637542 303.944370 -0.000000 0.000000 -68.640782 0.000000 0.000000 68.640782 -0.000000 0.000000 0.000000 -0.000000 0.000000 0.000000 0.000000 0.000000 0.000000 -0.000000 0.000000 0.000000 -0.000000 0.000000 0.000000 -0.000000 0.000000 0.000000 -0.000000 0.000000 0.000000 0.000000 0.000000 0.000000 0.000000 0.000000 0.000000 -0.000000 0.000000 0.000000 -0.000000 0.000000 0.000000 -0.000000 0.000000 0.000000 -0.000000 0.000000 0.000000 0.000000 0.000000 0.000000 0.000000 0.000000 0.000000 0.000000 0.000000 68.640782 -0.000000 0.000000 0.000000 -0.000000 0.000000 0.000000 0.000000 0.000000 0.000000 0.000000 0.000000 68.640782 -0.000000 0.000000 0.000000 -0.000000 0.000000 0.000000 0.000000 0.000000 0.000000
-84.176987 71.610494 304.472325 0.109301 -0.203562 -69.244162 -0.229086 -0.030068 69.244296 -0.000000 0.000000 0.000000 -0.000000 0.000000 0.000000 0.000000 0.000000 0.000000 -0.000000 0.000000 0.000000 2.753143 -0.021816 -0.382406 4.128109 -1.143601 1.774974 -4.157517 0.023366 -0.801181 0.000000 0.000000 0.000000 0.000000 0.000000 0.000000 -0.000000 0.000000 0.000000 0.341286 2.205666 0.278592 -2.561025 -2.728752 2.491142 -0.354306 2.382226 -1.857394 0.000000 0.000000 0.000000 0.000000 0.000000 0.000000 -0.229086 -0.030068 69.244296 -0.000000 0.000000 0.000000 -0.000000 0.000000 0.000000 0.000000 0.000000 0.000000 -0.229086 -0.030068 69.244296 -0.000000 0.000000 0.000000 -0.000000 0.000000 0.000000 0.000000 0.000000 0.000000
-83.861584 71.582919 304.892285 0.185112 -0.345349 -69.678211 -0.388140 -0.053654 69.678587 -0.000000 0.000000 0.000000 1.161127 -0.766289 -0.014863 0.000000 0.000000 0.000000 -0.000000 0.000000 0.000000 5.089370 -0.069460 -0.704692 7.642678 -2.140204 3.389350 -7.685522 0.723694 -1.471479 0.000000 0.000000 0.000000 0.000000 0.000000 0.000000 -0.000000 0.000000 0.000000 0.610858 4.164390 0.535753 -4.854556 -5.217541 4.556991 -1.222141 5.279358 -3.134810 0.000000 0.000000 0.000000 0.000000 0.000000 0.000000 -1.586260 -0.671670 69.633758 0.996348 -0.908151 0.045142 -0.000000 0.000000 0.000000 0.000000 0.000000 0.000000 -1.215383 -0.019387 69.558081 0.256825 -0.787115 0.121743 -0.000000 0.000000 0.000000 0.000000 0.000000 0.000000
-83.602310 71.554816 305.204250 0.227182 -0.424896 -69.942373 -0.477040 -0.067680 69.942934 -0.000000 0.000000 0.000000 1.625350 -1.071523 -0.017298 0.000000 0.000000 0.000000 -0.000000 0.000000 0.000000 7.049774 -0.135982 -0.971978 10.291869 -3.065733 4.767139 -10.252067 1.948033 -2.004826 0.000000 0.000000 0.000000 0.000000 0.000000 0.000000 -0.000000 0.000000 0.000000 0.816077 5.904041 0.779521 -6.851918 -7.451189 6.196170 -2.548321 8.631637 -3.775587 0.000000 0.000000 0.000000 0.000000 0.000000 0.000000 -2.058649 -0.927411 69.890254 1.351091 -1.189624 0.052972 -0.000000 0.000000 0.000000 0.000000 0.000000 0.000000 -1.577637 -0.049810 69.782516 0.363611 -1.038958 0.162586 -0.000000 0.000000 0.000000 0.000000 0.000000 0.000000
-83.399165 71.526187 305.408220 0.235327 -0.441869 -70.037479 -0.495660 -0.070334 70.038082 -0.000000 0.000000 0.000000 2.012498 -1.325088 -0.018140 0.000000 0.000000 0.000000 -0.517310 0.671657 0.090149 9.187115 -0.893952 -1.170899 11.954056 -4.005632 5.866442 -11.690825 3.604860 -2.429022 0.000000 0.000000 0.000000 0.000000 0.000000 0.000000 -0.000000 0.000000 0.000000 0.962291 7.448685 1.016503 -8.526385 -9.416112 7.411688 -4.133910 12.200096 -3.843513 0.000000 0.000000 0.000000 0.000000 0.000000 0.000000 -2.319507 -1.118771 69.989949 1.609207 -1.355035 0.048236 -0.000000 0.000000 0.000000 0.000000 0.000000 0.000000 -1.776282 -0.085953 69.851454 0.455827 -1.196865 0.189643 -0.000000 0.000000 0.000000 0.000000 0.000000 0.000000
-83.252148 71.497030 305.504195 0.209434 -0.396054 -69.965571 -0.443836 -0.061080 69.966059 -0.000000 0.000000 0.000000 2.322854 -1.527166 -0.018423 0.000000 0.000000 0.000000 -0.596917 0.708602 0.117161 10.576539 -1.025912 -1.345589 12.575974 -5.036832 6.663148 -11.922644 5.657968 -2.789443 0.000000 0.000000 0.000000 0.000000 0.000000 0.000000 -0.000000 0.000000 0.000000 1.053167 8.818758 1.252324 -9.851805 -11.101669 8.208192 -5.628742 15.571727 -3.565510 0.000000 0.000000 0.000000 0.000000 0.000000 0.000000 -2.369073 -1.242122 69.936280 1.769798 -1.403292 0.029557 -0.125043 0.301369 0.891611 0.000000 0.000000 0.000000 -1.811577 -0.125397 69.767044 0.533423 -1.261093 0.202659 -0.140165 0.306570 0.911076 0.000000 0.000000 0.000000
-83.320475 71.520514 305.126267 0.025779 0.048320 -69.274814 0.036071 -0.041211 69.274816 -0.000000 0.000000 0.000000 2.546557 -1.656410 -0.029818 0.000000 0.000000 0.000000 -0.667564 0.704712 0.148135 11.879163 -0.996968 -1.535023 10.279358 -6.333292 6.786200 -9.089924 8.768604 -3.184814 0.000000 0.000000 0.000000 0.000000 0.000000 0.000000 -0.000000 0.000000 0.000000 1.110940 10.850022 1.656033 -11.618721 -13.935376 9.348216 -3.957755 20.894520 -5.526673 0.000000 0.000000 0.000000 0.000000 0.000000 0.000000 -1.072679 -1.165483 69.396429 1.442477 -0.642251 -0.125205 -0.159733 0.384518 1.137628 0.000000 0.000000 0.000000 -0.921730 -0.236526 69.137204 0.523626 -0.825444 0.139062 -0.176170 0.391363 1.158875 0.000000 0.000000 0.000000
-83.267555 71.490958 305.019610 -0.054607 0.209695 -68.803422 0.215252 -0.024906 68.803569 -0.000000 0.000000 0.000000 2.738403 -1.762423 -0.042724 0.000000 0.000000 0.000000 -0.698518 0.628988 0.175760 12.729332 -0.994553 -1.673159 8.214722 -8.140400 6.836956 -6.163761 12.231822 -3.653315 0.000000 0.000000 0.000000 0.000000 0.000000 0.000000 -0.000000 0.000000 0.000000 1.044916 12.435289 2.057319 -12.329586 -15.516596 9.115023 -5.255699 24.103464 -4.776510 0.000000 0.000000 0.000000 0.000000 0.000000 0.000000 -0.791422 -1.171394 68.955768 1.431457 -0.527893 -0.156115 -0.187841 0.443878 1.318037 0.000000 0.000000 0.000000 -0.677828 -0.335485 68.677039 0.614072 -0.719011 0.127574 -0.203838 0.452513 1.339978 0.000000 0.000000 0.000000
-83.254281 71.441877 304.976097 -0.146096 0.267511 -68.394585 0.302510 0.037331 68.394828 -0.000000 0.000000 0.000000 2.762332 -1.695020 -0.102902 0.000000 0.000000 0.000000 -0.689502 0.487666 0.198778 13.085810 -1.052900 -1.748009 6.075061 -11.068317 6.767232 -3.446694 17.910188 -4.502243 0.000000 0.000000 0.000000 0.000000 0.000000 0.000000 -0.000000 0.000000 0.000000 0.916663 13.085746 2.306231 -12.054052 -15.721088 8.236731 -5.588610 22.016919 -4.345119 0.000000 0.000000 0.000000 0.000000 0.000000 0.000000 -0.770431 -1.075431 68.529500 1.428224 -0.591236 -0.137023 -0.212466 0.458542 1.388258 0.000000 0.000000 0.000000 -0.577651 -0.293867 68.271781 0.633519 -0.695013 0.124919 -0.226490 0.468117 1.408843 0.000000 0.000000 0.000000
-83.242419 71.365994 304.937005 -0.229144 0.316347 -68.155313 0.378894 0.094982 68.155631 -0.000000 0.000000 0.000000 2.772220 -1.731584 -0.080968 0.000000 0.000000 0.000000 -0.000000 0.000000 0.000000 12.302070 -0.794428 -1.615719 3.628450 -11.891968 6.084280 -0.212662 20.154197 -4.915348 0.000000 0.000000 0.000000 0.000000 0.000000 0.000000 -0.000000 0.000000 0.000000 0.757268 12.709619 2.360414 -11.018214 -14.317121 6.840412 -5.714606 19.214545 -3.597660 0.000000 0.000000 0.000000 0.000000 0.000000 0.000000 -0.758674 -1.011565 68.279805 1.448938 -0.647340 -0.125088 -0.230264 0.444305 1.380595 0.000000 0.000000 0.000000 -0.514413 -0.238792 68.031851 0.643736 -0.703579 0.126611 -0.240382 0.454622 1.397933 0.000000 0.000000 0.000000
-83.196500 71.282690 304.804930 -0.289686 0.410504 -67.939883 0.489250 0.114303 67.940432 -0.000000 0.000000 0.000000 2.794129 -1.844517 -0.009088 0.000000 0.000000 0.000000 -0.000000 0.000000 0.000000 12.247726 -1.021838 -1.577271 1.713990 -11.232391 5.426260 2.139971 20.071849 -4.949688 0.000000 0.000000 0.000000 0.000000 0.000000 0.000000 -0.000000 0.000000 0.000000 0.917206 12.049998 2.081882 -10.739639 -12.233162 5.828838 -7.404711 14.359765 -1.692915 0.000000 0.000000 0.000000 0.000000 0.000000 0.000000 -0.542271 -1.077410 68.111390 1.490321 -0.512935 -0.172956 -0.242520 0.431402 1.368012 0.000000 0.000000 0.000000 -0.390285 -0.272790 67.819766 0.690509 -0.668309 0.123477 -0.248333 0.442407 1.381325 0.000000 0.000000 0.000000
-83.130853 71.202530 304.628717 -0.324672 0.510243 -67.842679 0.595010 0.108261 67.843562 -0.000000 0.000000 0.000000 2.868178 -2.040978 0.099551 0.000000 0.000000 0.000000 -0.000000 0.000000 0.000000 11.991426 -1.165815 -1.523855 0.419499 -9.309172 4.790797 3.635021 17.896273 -4.496387 0.000000 0.000000 0.000000 0.000000 0.000000 0.000000 -0.000000 0.000000 0.000000 1.162169 11.139595 1.676431 -11.235580 -9.226171 5.044146 -7.802868 9.753984 -0.475516 0.000000 0.000000 0.000000 0.000000 0.000000 0.000000 -0.248815 -1.217763 68.089385 1.545086 -0.288120 -0.250108 -0.249697 0.421435 1.354958 0.000000 0.000000 0.000000 -0.292802 -0.369331 67.722717 0.778518 -0.640494 0.123174 -0.251533 0.432898 1.364041 0.000000 0.000000 0.000000
-83.062736 71.122874 304.449072 -0.339898 0.620300 -67.939487 0.702543 0.082045 67.940824 -0.000000 0.000000 0.000000 2.915959 -2.183903 0.181758 0.000000 0.000000 0.000000 -0.693376 -0.387839 0.367491 12.294438 -1.034529 -1.893105 -1.059152 -7.268650 4.103432 5.787900 16.133475 -4.121715 0.000000 0.000000 0.000000 0.000000 0.000000 0.000000 -0.000000 0.000000 0.000000 1.390213 10.538714 1.352766 -13.091204 -6.681698 5.397802 -5.551701 2.499136 -1.179339 0.000000 0.000000 0.000000 0.000000 0.000000 0.000000 0.076080 -1.412589 68.275880 1.620334 -0.028831 -0.341923 -0.247251 0.386203 1.268357 0.000000 0.000000 0.000000 -0.196559 -0.453656 67.818393 0.279436 -1.474489 0.422918 0.319139 1.239009 0.964172 0.000000 0.000000 0.000000
